<svg xmlns="http://www.w3.org/2000/svg" width="30" height="39" viewBox="0 0 30 39" fill="none">
  <path d="M26.9005 18.0369C26.4214 17.4119 25.838 16.8703 25.2964 16.3286C23.9005 15.0786 22.3172 14.1828 20.9839 12.8703C17.8797 9.82861 17.1922 4.80778 19.1714 0.953613C17.1922 1.43278 15.463 2.51611 13.9839 3.70361C8.58803 8.03695 6.46303 15.6828 9.0047 22.2453C9.08803 22.4536 9.17137 22.6619 9.17137 22.9328C9.17137 23.3911 8.85887 23.8078 8.4422 23.9744C7.96303 24.1828 7.46304 24.0578 7.0672 23.7244C6.9422 23.6203 6.85887 23.5161 6.77553 23.3703C4.42137 20.3911 4.04637 16.1203 5.6297 12.7036C2.15053 15.5369 0.254702 20.3286 0.525535 24.8494C0.650535 25.8911 0.775535 26.9328 1.1297 27.9744C1.42137 29.2244 1.98387 30.4745 2.60887 31.5786C4.85887 35.1828 8.7547 37.7661 12.9422 38.2869C17.4005 38.8494 22.1714 38.0369 25.588 34.9536C29.4005 31.4953 30.7339 25.9536 28.7755 21.2036L28.5047 20.6619C28.0672 19.7036 26.9005 18.0369 26.9005 18.0369ZM20.3172 31.1619C19.7339 31.6619 18.7755 32.2036 18.0255 32.4119C15.6922 33.2453 13.3589 32.0786 11.9839 30.7036C14.463 30.1203 15.9422 28.2869 16.3797 26.4328C16.7339 24.7661 16.0672 23.3911 15.7964 21.7869C15.5464 20.2453 15.588 18.9328 16.1505 17.4953C16.5464 18.2869 16.963 19.0786 17.463 19.7036C19.0672 21.7869 21.588 22.7036 22.1297 25.5369C22.213 25.8286 22.2547 26.1203 22.2547 26.4328C22.3172 28.1411 21.5672 30.0161 20.3172 31.1619Z" fill="#D79D4D"/>
</svg>