<svg xmlns="http://www.w3.org/2000/svg" width="30" height="39" viewBox="0 0 30 39" fill="none">
  <path d="M26.9005 17.381C26.4214 16.7474 25.838 16.1982 25.2964 15.6491C23.9005 14.3819 22.3172 13.4738 20.9839 12.1433C17.8797 9.05977 17.1922 3.9699 19.1714 0.0627441C17.1922 0.548499 15.463 1.64673 13.9839 2.85055C8.58804 7.24347 6.46303 14.9944 9.0047 21.6471C9.08803 21.8583 9.17137 22.0695 9.17137 22.3441C9.17137 22.8087 8.85887 23.2311 8.4422 23.4001C7.96304 23.6113 7.46304 23.4846 7.0672 23.1467C6.9422 23.0411 6.85887 22.9355 6.77554 22.7876C4.42137 19.7675 4.04637 15.4379 5.6297 11.9743C2.15053 14.8466 0.254702 19.7041 0.525535 24.2871C0.650535 25.3431 0.775535 26.3991 1.1297 27.4551C1.42137 28.7223 1.98387 29.9895 2.60887 31.1088C4.85887 34.7625 8.7547 37.3814 12.9422 37.9094C17.4005 38.4796 22.1714 37.6559 25.588 34.5302C29.4005 31.0243 30.7339 25.4065 28.7755 20.5912L28.5047 20.042C28.0672 19.0705 26.9005 17.381 26.9005 17.381ZM20.3172 30.6864C19.7339 31.1933 18.7755 31.7424 18.0255 31.9536C15.6922 32.7984 13.3589 31.6157 11.9839 30.2218C14.463 29.6304 15.9422 27.7719 16.3797 25.8922C16.7339 24.2026 16.0672 22.8087 15.7964 21.1825C15.5464 19.6196 15.588 18.2891 16.1505 16.8318C16.5464 17.6344 16.963 18.4369 17.463 19.0705C19.0672 21.1825 21.588 22.1118 22.1297 24.9841C22.213 25.2797 22.2547 25.5754 22.2547 25.8922C22.3172 27.624 21.5672 29.5248 20.3172 30.6864Z" fill="#B71A1A"/>
</svg>