<svg xmlns="http://www.w3.org/2000/svg" width="59" height="58" viewBox="0 0 59 58" fill="none">
  <path d="M29.1667 0.953613C25.3364 0.953613 21.5437 1.70803 18.0051 3.17379C14.4664 4.63956 11.2511 6.78796 8.54272 9.49633C3.07291 14.9661 0 22.3848 0 30.1203C0 43.0119 8.37083 53.9494 19.95 57.8286C21.4083 58.0619 21.875 57.1578 21.875 56.3703C21.875 55.6994 21.875 53.8619 21.875 51.4411C13.7958 53.1911 12.075 47.5328 12.075 47.5328C10.7333 44.1494 8.8375 43.2453 8.8375 43.2453C6.18333 41.4369 9.04167 41.4953 9.04167 41.4953C11.9583 41.6994 13.5042 44.4994 13.5042 44.4994C16.0417 48.9328 20.3292 47.6203 21.9917 46.9203C22.2542 45.0244 23.0125 43.7411 23.8292 43.0119C17.3542 42.2828 10.5583 39.7744 10.5583 28.6619C10.5583 25.4244 11.6667 22.8286 13.5625 20.7578C13.2708 20.0286 12.25 16.9953 13.8542 13.0578C13.8542 13.0578 16.3042 12.2703 21.875 16.0328C24.1792 15.3911 26.6875 15.0703 29.1667 15.0703C31.6458 15.0703 34.1542 15.3911 36.4583 16.0328C42.0292 12.2703 44.4792 13.0578 44.4792 13.0578C46.0833 16.9953 45.0625 20.0286 44.7708 20.7578C46.6667 22.8286 47.775 25.4244 47.775 28.6619C47.775 39.8036 40.95 42.2536 34.4458 42.9828C35.4958 43.8869 36.4583 45.6661 36.4583 48.3786C36.4583 52.2869 36.4583 55.4369 36.4583 56.3703C36.4583 57.1578 36.925 58.0911 38.4125 57.8286C49.9917 53.9203 58.3333 43.0119 58.3333 30.1203C58.3333 26.2901 57.5789 22.4973 56.1132 18.9587C54.6474 15.42 52.499 12.2047 49.7906 9.49633C47.0822 6.78796 43.8669 4.63956 40.3283 3.17379C36.7896 1.70803 32.9969 0.953613 29.1667 0.953613Z" fill="#C88D28"/>
</svg>