<svg xmlns="http://www.w3.org/2000/svg" width="41" height="49" viewBox="0 0 41 49" fill="none">
  <path d="M21.3092 0.203622L20.2423 5.06783L15.8941 10.7201L4.97992 17.3661L9.36081 17.3182L14.9642 39.0934L20.4686 43.8857L21.5922 48.726L23.7826 48.702L24.8495 43.8378L30.2974 38.9257L35.6461 17.0308L40.027 16.9829L29.0368 10.5764L24.6232 5.01993L23.4997 0.179671M13.7417 17.2703L31.2653 17.0787L26.5156 36.5408L18.7177 36.626M0.669764 29.5446L0.782939 48.9535L19.4017 48.7499L18.2782 43.9097L11.7069 43.9815L5.09309 36.775L5.05065 29.4967L0.669764 29.5446Z" fill="url(#paint0_linear_15_16)"/>
  <defs>
    <linearGradient id="paint0_linear_15_16" x1="20.214" y1="0.215596" x2="137.043" y2="71.895" gradientUnits="userSpaceOnUse">
      <stop stop-color="#D3A769"/>
      <stop offset="1" stop-color="#C88D28"/>
    </linearGradient>
  </defs>
</svg>