<svg xmlns="http://www.w3.org/2000/svg" width="53" height="54" viewBox="0 0 53 54" fill="none">
  <path d="M46.6667 0.953613C48.2138 0.953613 49.6975 1.56819 50.7915 2.66216C51.8854 3.75612 52.5 5.23985 52.5 6.78695V47.6203C52.5 49.1674 51.8854 50.6511 50.7915 51.7451C49.6975 52.839 48.2138 53.4536 46.6667 53.4536H5.83333C4.28624 53.4536 2.80251 52.839 1.70854 51.7451C0.614581 50.6511 0 49.1674 0 47.6203V6.78695C0 5.23985 0.614581 3.75612 1.70854 2.66216C2.80251 1.56819 4.28624 0.953613 5.83333 0.953613H46.6667ZM45.2083 46.1619V30.7036C45.2083 28.1818 44.2066 25.7634 42.4234 23.9802C40.6402 22.197 38.2218 21.1953 35.7 21.1953C33.2208 21.1953 30.3333 22.7119 28.9333 24.9869V21.7494H20.7958V46.1619H28.9333V31.7828C28.9333 29.5369 30.7417 27.6994 32.9875 27.6994C34.0705 27.6994 35.1091 28.1297 35.8749 28.8954C36.6406 29.6612 37.0708 30.6998 37.0708 31.7828V46.1619H45.2083ZM11.3167 17.1703C12.6162 17.1703 13.8626 16.654 14.7815 15.7351C15.7004 14.8162 16.2167 13.5698 16.2167 12.2703C16.2167 9.55778 14.0292 7.34111 11.3167 7.34111C10.0094 7.34111 8.75562 7.86043 7.83122 8.78483C6.90682 9.70923 6.3875 10.963 6.3875 12.2703C6.3875 14.9828 8.60417 17.1703 11.3167 17.1703ZM15.3708 46.1619V21.7494H7.29167V46.1619H15.3708Z" fill="#BC8025"/>
</svg>