<svg xmlns="http://www.w3.org/2000/svg" width="47" height="60" viewBox="0 0 47 60" fill="none">
  <path d="M26.25 21.3703H42.2917L26.25 5.32861V21.3703ZM5.83333 0.953613H29.1667L46.6667 18.4536V53.4536C46.6667 55.0007 46.0521 56.4844 44.9581 57.5784C43.8642 58.6724 42.3804 59.2869 40.8333 59.2869H5.83333C2.59583 59.2869 0 56.6619 0 53.4536V6.78695C0 3.54945 2.59583 0.953613 5.83333 0.953613ZM29.1667 53.4536V50.5369C29.1667 46.6578 21.3792 44.7036 17.5 44.7036C13.6208 44.7036 5.83333 46.6578 5.83333 50.5369V53.4536H29.1667ZM17.5 30.1203C15.9529 30.1203 14.4692 30.7349 13.3752 31.8288C12.2812 32.9228 11.6667 34.4065 11.6667 35.9536C11.6667 37.5007 12.2812 38.9844 13.3752 40.0784C14.4692 41.1724 15.9529 41.7869 17.5 41.7869C19.0471 41.7869 20.5308 41.1724 21.6248 40.0784C22.7188 38.9844 23.3333 37.5007 23.3333 35.9536C23.3333 34.4065 22.7188 32.9228 21.6248 31.8288C20.5308 30.7349 19.0471 30.1203 17.5 30.1203Z" fill="#C88D28"/>
</svg>